<?xml version="1.0" encoding="UTF-8" standalone="no"?>
<svg
   width="234.6769mm"
   height="223.25195mm"
   viewBox="0 0 234.6769 223.25195"
   version="1.1"
   id="svg5"
   xmlns:xlink="http://www.w3.org/1999/xlink"
   xmlns="http://www.w3.org/2000/svg"
   xmlns:svg="http://www.w3.org/2000/svg">
  <defs
     id="defs2">
    <linearGradient
       x1="0"
       y1="0"
       x2="1"
       y2="0"
       gradientUnits="userSpaceOnUse"
       gradientTransform="matrix(0,-1156.3691,-1156.3691,0,509.36724,2464.057)"
       spreadMethod="pad"
       id="linearGradient854">
      <stop
         style="stop-opacity:1;stop-color:#fab53b"
         offset="0"
         id="stop844" />
      <stop
         style="stop-opacity:1;stop-color:#fab53b"
         offset="0.169366"
         id="stop846" />
      <stop
         style="stop-opacity:1;stop-color:#fee3b9"
         offset="0.520243"
         id="stop848" />
      <stop
         style="stop-opacity:1;stop-color:#f9b233"
         offset="0.878543"
         id="stop850" />
      <stop
         style="stop-opacity:1;stop-color:#f9b233"
         offset="1"
         id="stop852" />
    </linearGradient>
    <clipPath
       clipPathUnits="userSpaceOnUse"
       id="clipPath864">
      <path
         d="M 0,2485.477 H 4021.012 V 0 H 0 Z"
         id="path862" />
    </clipPath>
    <clipPath
       clipPathUnits="userSpaceOnUse"
       id="clipPath884">
      <path
         d="m 1557.92,1063.97 h 103.83 V 819.641 h -103.83 z"
         id="path882" />
    </clipPath>
    <clipPath
       clipPathUnits="userSpaceOnUse"
       id="clipPath912">
      <path
         d="m 1866.17,1063.97 h 103.82 V 819.641 h -103.82 z"
         id="path910" />
    </clipPath>
    <clipPath
       clipPathUnits="userSpaceOnUse"
       id="clipPath940">
      <path
         d="m 2175.53,1063.97 h 103.82 V 819.641 h -103.82 z"
         id="path938" />
    </clipPath>
    <clipPath
       clipPathUnits="userSpaceOnUse"
       id="clipPath968">
      <path
         d="m 2023.12,1330.1 h 103.83 v -244.33 h -103.83 z"
         id="path966" />
    </clipPath>
    <clipPath
       clipPathUnits="userSpaceOnUse"
       id="clipPath996">
      <path
         d="m 1732.36,1596.07 h 103.82 v -244.32 h -103.82 z"
         id="path994" />
    </clipPath>
    <clipPath
       clipPathUnits="userSpaceOnUse"
       id="clipPath1024">
      <path
         d="m 1887.04,1839.62 h 103.82 V 1595.3 h -103.82 z"
         id="path1022" />
    </clipPath>
    <clipPath
       clipPathUnits="userSpaceOnUse"
       id="clipPath1052">
      <path
         d="m 2044.36,1589.09 h 103.83 v -244.32 h -103.83 z"
         id="path1050" />
    </clipPath>
    <clipPath
       clipPathUnits="userSpaceOnUse"
       id="clipPath1188">
      <path
         d="m 1218.95,1278.35 h 590.88 V 954.106 h -590.88 z"
         id="path1186" />
    </clipPath>
    <clipPath
       clipPathUnits="userSpaceOnUse"
       id="clipPath1192">
      <path
         d="m 1218.95,1278.35 h 590.88 V 954.106 h -590.88 z"
         id="path1190" />
    </clipPath>
    <clipPath
       clipPathUnits="userSpaceOnUse"
       id="clipPath1246">
      <path
         d="m 1950.713,1681.189 c -54.367,-5.639 -117.287,-17.179 -184.12,-132.424 v 0 c -33.414,-57.621 -56.351,-148.889 -0.655,-272.725 v 0 c 64.532,-143.486 225.286,-113.128 301.406,-100.928 v 0 c 61.929,9.923 148.739,65.853 183.466,186.11 v 0 c 27.428,94.983 -43.246,128.13 -43.246,128.13 v 0 c 0,0 -7.917,36.522 -12.45,47.959 v 0 c -9.334,23.558 -36.724,66.814 -54.384,83.75 v 0 c -26.784,25.686 -74.483,61.844 -157.762,61.844 v 0 c -10.208,0 -20.951,-0.543 -32.255,-1.716"
         id="path1244" />
    </clipPath>
    <clipPath
       clipPathUnits="userSpaceOnUse"
       id="clipPath1260">
      <path
         d="M 0,2485.477 H 4021.012 V 0 H 0 Z"
         id="path1258" />
    </clipPath>
    <clipPath
       clipPathUnits="userSpaceOnUse"
       id="clipPath1284">
      <path
         d="m 1748.15,1658.51 h 397.44 v -439.44 h -397.44 z"
         id="path1282" />
    </clipPath>
    <clipPath
       clipPathUnits="userSpaceOnUse"
       id="clipPath1288">
      <path
         d="m 1748.15,1658.51 h 397.44 v -439.44 h -397.44 z"
         id="path1286" />
    </clipPath>
    <radialGradient
       fx="0"
       fy="0"
       cx="0"
       cy="0"
       r="1"
       gradientUnits="userSpaceOnUse"
       gradientTransform="matrix(28.173134,0,0,28.173134,108.28071,139.41394)"
       spreadMethod="pad"
       id="radialGradient1358">
      <stop
         style="stop-opacity:1;stop-color:#683c10"
         offset="0"
         id="stop1352" />
      <stop
         style="stop-opacity:1;stop-color:#341d19"
         offset="0.873819"
         id="stop1354" />
      <stop
         style="stop-opacity:1;stop-color:#341d19"
         offset="1"
         id="stop1356" />
    </radialGradient>
    <clipPath
       clipPathUnits="userSpaceOnUse"
       id="clipPath1368">
      <path
         d="M 0,2485.477 H 4021.012 V 0 H 0 Z"
         id="path1366" />
    </clipPath>
    <linearGradient
       x1="0"
       y1="0"
       x2="1"
       y2="0"
       gradientUnits="userSpaceOnUse"
       gradientTransform="matrix(0,-326.07944,-326.07944,0,726.51349,863.87286)"
       spreadMethod="pad"
       id="linearGradient1840">
      <stop
         style="stop-opacity:1;stop-color:#fab53b"
         offset="0"
         id="stop1830" />
      <stop
         style="stop-opacity:1;stop-color:#fab53b"
         offset="0.169366"
         id="stop1832" />
      <stop
         style="stop-opacity:1;stop-color:#fee3b9"
         offset="0.520243"
         id="stop1834" />
      <stop
         style="stop-opacity:1;stop-color:#f9b233"
         offset="0.878543"
         id="stop1836" />
      <stop
         style="stop-opacity:1;stop-color:#f9b233"
         offset="1"
         id="stop1838" />
    </linearGradient>
    <linearGradient
       x1="0"
       y1="0"
       x2="1"
       y2="0"
       gradientUnits="userSpaceOnUse"
       gradientTransform="matrix(0,-265.03589,-265.03589,0,1083.2754,810.78546)"
       spreadMethod="pad"
       id="linearGradient1866">
      <stop
         style="stop-opacity:1;stop-color:#fab53b"
         offset="0"
         id="stop1856" />
      <stop
         style="stop-opacity:1;stop-color:#fab53b"
         offset="0.169366"
         id="stop1858" />
      <stop
         style="stop-opacity:1;stop-color:#fee3b9"
         offset="0.520243"
         id="stop1860" />
      <stop
         style="stop-opacity:1;stop-color:#f9b233"
         offset="0.878543"
         id="stop1862" />
      <stop
         style="stop-opacity:1;stop-color:#f9b233"
         offset="1"
         id="stop1864" />
    </linearGradient>
    <linearGradient
       x1="0"
       y1="0"
       x2="1"
       y2="0"
       gradientUnits="userSpaceOnUse"
       gradientTransform="matrix(0,-226.37988,-226.37988,0,1340.6687,768.19879)"
       spreadMethod="pad"
       id="linearGradient1892">
      <stop
         style="stop-opacity:1;stop-color:#fab53b"
         offset="0"
         id="stop1882" />
      <stop
         style="stop-opacity:1;stop-color:#fab53b"
         offset="0.169366"
         id="stop1884" />
      <stop
         style="stop-opacity:1;stop-color:#fee3b9"
         offset="0.520243"
         id="stop1886" />
      <stop
         style="stop-opacity:1;stop-color:#f9b233"
         offset="0.878543"
         id="stop1888" />
      <stop
         style="stop-opacity:1;stop-color:#f9b233"
         offset="1"
         id="stop1890" />
    </linearGradient>
    <linearGradient
       x1="0"
       y1="0"
       x2="1"
       y2="0"
       gradientUnits="userSpaceOnUse"
       gradientTransform="matrix(0,-226.81714,-226.81714,0,1567.119,766.23175)"
       spreadMethod="pad"
       id="linearGradient1918">
      <stop
         style="stop-opacity:1;stop-color:#fab53b"
         offset="0"
         id="stop1908" />
      <stop
         style="stop-opacity:1;stop-color:#fab53b"
         offset="0.169366"
         id="stop1910" />
      <stop
         style="stop-opacity:1;stop-color:#fee3b9"
         offset="0.520243"
         id="stop1912" />
      <stop
         style="stop-opacity:1;stop-color:#f9b233"
         offset="0.878543"
         id="stop1914" />
      <stop
         style="stop-opacity:1;stop-color:#f9b233"
         offset="1"
         id="stop1916" />
    </linearGradient>
    <linearGradient
       x1="0"
       y1="0"
       x2="1"
       y2="0"
       gradientUnits="userSpaceOnUse"
       gradientTransform="matrix(0,-221.43164,-221.43164,0,2013.8776,759.81036)"
       spreadMethod="pad"
       id="linearGradient1944">
      <stop
         style="stop-opacity:1;stop-color:#fab53b"
         offset="0"
         id="stop1934" />
      <stop
         style="stop-opacity:1;stop-color:#fab53b"
         offset="0.169366"
         id="stop1936" />
      <stop
         style="stop-opacity:1;stop-color:#fee3b9"
         offset="0.520243"
         id="stop1938" />
      <stop
         style="stop-opacity:1;stop-color:#f9b233"
         offset="0.878543"
         id="stop1940" />
      <stop
         style="stop-opacity:1;stop-color:#f9b233"
         offset="1"
         id="stop1942" />
    </linearGradient>
    <linearGradient
       x1="0"
       y1="0"
       x2="1"
       y2="0"
       gradientUnits="userSpaceOnUse"
       gradientTransform="matrix(0,-251.39371,-251.39371,0,2390.6873,785.55975)"
       spreadMethod="pad"
       id="linearGradient1970">
      <stop
         style="stop-opacity:1;stop-color:#fab53b"
         offset="0"
         id="stop1960" />
      <stop
         style="stop-opacity:1;stop-color:#fab53b"
         offset="0.169366"
         id="stop1962" />
      <stop
         style="stop-opacity:1;stop-color:#fee3b9"
         offset="0.520243"
         id="stop1964" />
      <stop
         style="stop-opacity:1;stop-color:#f9b233"
         offset="0.878543"
         id="stop1966" />
      <stop
         style="stop-opacity:1;stop-color:#f9b233"
         offset="1"
         id="stop1968" />
    </linearGradient>
    <linearGradient
       x1="0"
       y1="0"
       x2="1"
       y2="0"
       gradientUnits="userSpaceOnUse"
       gradientTransform="matrix(0,-271.07971,-271.07971,0,2653.6677,816.22504)"
       spreadMethod="pad"
       id="linearGradient1996">
      <stop
         style="stop-opacity:1;stop-color:#fab53b"
         offset="0"
         id="stop1986" />
      <stop
         style="stop-opacity:1;stop-color:#fab53b"
         offset="0.169366"
         id="stop1988" />
      <stop
         style="stop-opacity:1;stop-color:#fee3b9"
         offset="0.520243"
         id="stop1990" />
      <stop
         style="stop-opacity:1;stop-color:#f9b233"
         offset="0.878543"
         id="stop1992" />
      <stop
         style="stop-opacity:1;stop-color:#f9b233"
         offset="1"
         id="stop1994" />
    </linearGradient>
    <linearGradient
       x1="0"
       y1="0"
       x2="1"
       y2="0"
       gradientUnits="userSpaceOnUse"
       gradientTransform="matrix(0,-328.66403,-328.66403,0,2913.5422,872.35925)"
       spreadMethod="pad"
       id="linearGradient2022">
      <stop
         style="stop-opacity:1;stop-color:#fab53b"
         offset="0"
         id="stop2012" />
      <stop
         style="stop-opacity:1;stop-color:#fab53b"
         offset="0.169366"
         id="stop2014" />
      <stop
         style="stop-opacity:1;stop-color:#fee3b9"
         offset="0.520243"
         id="stop2016" />
      <stop
         style="stop-opacity:1;stop-color:#f9b233"
         offset="0.878543"
         id="stop2018" />
      <stop
         style="stop-opacity:1;stop-color:#f9b233"
         offset="1"
         id="stop2020" />
    </linearGradient>
  </defs>
  <g
     id="layer5"
     style="display:inline"
     transform="translate(17.972945,-19.211465)">
    <path
       d="m 77.419044,76.363489 c 0,0 -13.935427,-22.094472 -20.830469,-27.163889 C 49.294189,43.83632 30.90212,39.410017 22.585384,35.67657 15.405651,32.452887 3.4369596,24.034904 -7.3816763,26.38652 -17.782976,28.647826 -17.602354,40.497631 -13.849151,45.730736 c 1.714147,2.389717 7.7018441,5.251803 10.7008079,5.644445 8.199261,1.072797 19.6172661,-2.435225 25.7548941,-1.688042 8.256764,1.005417 23.611769,7.618942 29.748691,12.918017 4.98475,4.303888 15.992827,20.931363 15.992827,20.931363 0,0 3.557059,-1.569156 4.541661,-2.327981 1.313745,-1.012472 4.529314,-4.845049 4.529314,-4.845049"
       style="display:inline;fill:#1d1d1b;fill-opacity:1;fill-rule:nonzero;stroke:none;stroke-width:0.352778"
       id="path1112" />
    <path
       d="m 122.45123,61.835678 c 0,0 13.44401,-19.143133 19.74356,-23.321081 6.66468,-4.420658 22.92245,-7.352947 30.3777,-10.242902 6.43643,-2.495197 17.3489,-9.403644 26.61426,-6.654094 8.90799,2.643363 8.0391,13.331824 4.46123,17.839619 -1.63372,2.058811 -7.01217,4.29648 -9.64318,4.477455 -7.19385,0.494242 -16.91076,-3.33375 -22.29238,-3.014133 -7.23936,0.430389 -20.98781,5.513211 -26.64213,9.942689 -4.59246,3.597627 -15.16275,17.973674 -15.16275,17.973674 0,0 -2.99861,-1.622425 -3.80929,-2.364669 -1.08162,-0.990247 -3.64702,-4.636558 -3.64702,-4.636558 z"
       style="display:inline;fill:none;stroke:#1d1d1b;stroke-width:3.52778;stroke-linecap:butt;stroke-linejoin:miter;stroke-miterlimit:10;stroke-dasharray:none;stroke-opacity:1"
       id="path1124" />
    <path
       d="m 77.419044,76.363489 c 0,0 -13.935427,-22.094472 -20.830469,-27.163889 C 49.294189,43.83632 30.90212,39.410017 22.585384,35.67657 15.405651,32.452887 3.4369596,24.034904 -7.3816763,26.38652 -17.782976,28.647826 -17.602354,40.497631 -13.849151,45.730736 c 1.714147,2.389717 7.7018441,5.251803 10.7008079,5.644445 8.199261,1.072797 19.6172661,-2.435225 25.7548941,-1.688042 8.256764,1.005417 23.611769,7.618942 29.748691,12.918017 4.98475,4.303888 15.992827,20.931363 15.992827,20.931363 0,0 3.557059,-1.569156 4.541661,-2.327981 1.313745,-1.012472 4.529314,-4.845049 4.529314,-4.845049 z"
       style="display:inline;fill:none;stroke:#1d1d1b;stroke-width:3.52778;stroke-linecap:butt;stroke-linejoin:miter;stroke-miterlimit:10;stroke-dasharray:none;stroke-opacity:1"
       id="path1116" />
    <path
       d="m 122.45123,61.835678 c 0,0 13.44401,-19.143133 19.74356,-23.321081 6.66468,-4.420658 22.92245,-7.352947 30.3777,-10.242902 6.43643,-2.495197 17.3489,-9.403644 26.61426,-6.654094 8.90799,2.643363 8.0391,13.331824 4.46123,17.839619 -1.63372,2.058811 -7.01217,4.29648 -9.64318,4.477455 -7.19385,0.494242 -16.91076,-3.33375 -22.29238,-3.014133 -7.23936,0.430389 -20.98781,5.513211 -26.64213,9.942689 -4.59246,3.597627 -15.16275,17.973674 -15.16275,17.973674 0,0 -2.99861,-1.622425 -3.80929,-2.364669 -1.08162,-0.990247 -3.64702,-4.636558 -3.64702,-4.636558"
       style="display:inline;fill:#1d1d1b;fill-opacity:1;fill-rule:nonzero;stroke:none;stroke-width:0.352778"
       id="path1120" />
  </g>
  <g
     id="layer1"
     style="display:inline"
     transform="translate(17.972945,-19.211465)">
    <path
       d="m 167.38178,85.800294 -6.31225,-4.715933 -3.91231,0.754591 -2.96792,5.263445 -0.54645,10.86873 5.74428,15.042443 8.47337,-13.206587 1.76389,-5.460648 -1.41111,-6.605763"
       style="fill:#f9b233;fill-opacity:1;fill-rule:nonzero;stroke:none;stroke-width:0.352778"
       id="path1264" />
    <path
       d="m 212.2259,171.61708 c -7.493,25.93975 -21.85106,43.39519 -36.87233,53.84447 -9.5497,6.64281 -19.36397,10.45281 -27.85181,11.811 -26.85344,4.30389 -83.562468,15.01422 -106.327217,-35.60586 -19.649722,-43.688 -11.557,-75.8825 0.229305,-96.20955 3.887611,-6.702781 7.736417,-12.410725 11.539361,-17.279058 h 0.0035 C 72.218986,63.515388 90.34118,60.40036 106.35729,58.738777 c 36.52308,-3.788833 56.42681,11.038416 67.03483,21.212527 6.23006,5.972528 15.89264,21.233696 19.18406,29.545136 1.60161,4.03578 4.39208,16.91922 4.39208,16.91922 0,0 24.93433,11.69459 15.25764,45.20142"
       style="fill:#f9b233;fill-opacity:1;fill-rule:nonzero;stroke:none;stroke-width:0.352778"
       id="path1268" />
    <path
       d="m 157.71814,82.272516 c 0,0 4.11727,1.658056 5.18654,2.645833 2.35691,2.177345 6.71971,10.936111 6.71971,10.936111 l 13.67014,-1.508125 -9.26042,-8.72243 -11.12943,-5.120922 -4.2164,1.335969"
       style="fill:#e89b1f;fill-opacity:1;fill-rule:nonzero;stroke:none;stroke-width:0.352778"
       id="path1272" />
    <path
       d="m 185.59083,94.87141 -4.93148,-2.658533 -8.38906,-2.147006 -5.96794,0.851959 -5.23275,13.05066 10.78936,13.93472 12.84675,14.90028 5.85435,-4.92584 6.91197,-2.01859 -4.56424,-18.49085 -5.08529,-8.804981 -1.20826,-4.217105"
       style="fill:#ffffff;fill-opacity:1;fill-rule:nonzero;stroke:none;stroke-width:0.352778"
       id="path1276" />
    <path
       d="m 212.2259,171.61708 c -7.493,25.93975 -21.85106,43.39519 -36.87233,53.84447 0,0 18.32927,-44.44083 16.2313,-59.78525 -0.8763,-6.40856 -13.23269,-22.23205 -13.23269,-22.23205 l -2.75872,-32.01106 -20.95148,-25.752775 c 0,0 -1.778,-10.449277 -4.33211,-12.580055 -5.4236,-4.524728 -25.19433,-7.422444 -33.69027,-6.307314 C 99.970602,68.978504 52.946737,88.178082 52.946737,88.178082 72.218986,63.515388 90.34118,60.40036 106.35729,58.738777 c 36.52308,-3.788833 56.42681,11.038416 67.03483,21.212527 6.23006,5.972528 15.89264,21.233696 19.18406,29.545136 1.60161,4.03578 4.39208,16.91922 4.39208,16.91922 0,0 24.93433,11.69459 15.25764,45.20142"
       style="fill:#e89b1f;fill-opacity:1;fill-rule:nonzero;stroke:none;stroke-width:0.352778"
       id="path1322" />
    <path
       d="m 181.79522,121.88389 -2.52448,14.45189 8.55169,-6.08047 4.46793,-2.58198 6.08542,-1.99884 -5.7277,-17.77859 -4.82565,-9.836504 c 0,0 -10.68035,-8.8392 -11.29771,-8.8392 -0.27517,0 -11.50338,-8.930569 -14.51751,-8.717138 -3.75285,0.265641 -8.28746,9.563099 -8.28746,9.563099 l 21.87293,16.107123 7.70185,12.43542"
       style="fill:#ffffff;fill-opacity:1;fill-rule:nonzero;stroke:none;stroke-width:0.352778"
       id="path1326" />
    <path
       d="m 106.86046,58.183368 c 36.52202,-3.787775 56.4268,11.039475 67.03377,21.211822 6.23006,5.974291 15.89264,21.2344 19.18582,29.54514 1.59879,4.03472 4.39173,16.91887 4.39173,16.91887 0,0 24.93257,11.69352 15.25623,45.20141 -12.25091,42.42365 -42.87555,62.15451 -64.72237,65.65583 -26.8538,4.30318 -83.563885,15.01351 -106.329692,-35.60586 -19.647958,-43.68624 -11.557,-75.88391 0.231069,-96.21062 C 65.484214,64.243737 87.681344,60.172682 106.86046,58.183368 Z"
       style="fill:none;stroke:#1d1d1b;stroke-width:3.52778;stroke-linecap:butt;stroke-linejoin:miter;stroke-miterlimit:10;stroke-dasharray:none;stroke-opacity:1"
       id="path1330" />
    <path
       d="m 174.88678,94.346194 c 2.25143,2.228497 5.69948,5.960536 8.2102,9.651646 2.6102,3.83716 5.18759,13.03655 5.78344,17.63889 0.85231,6.58495 -3.99839,14.34606 -3.99839,14.34606 l -6.53097,-3.17923 -7.67715,-5.29238 -4.95935,-4.09857 -8.70197,-13.9259 -1.17898,-6.46042 -1.95157,-8.753474 -0.16228,-4.206875 c 0,0 14.49352,-2.325511 21.16702,4.280253"
       style="fill:#341d19;fill-opacity:1;fill-rule:nonzero;stroke:none;stroke-width:0.352778"
       id="path1334" />
    <path
       d="m 134.33804,111.82041 -9.07556,-8.08073 c 0,0 -11.89461,-8.166097 -18.64148,-9.438567 -3.17994,-0.599722 -16.99719,6.296377 -16.99719,6.296377 l -5.010855,16.47119 5.206647,33.67829 11.806768,17.4565 2.14489,3.72957 12.43682,-11.1379 8.013,-4.66549 9.71479,-3.33516 10.23691,-2.04752 0.99836,-9.78006 -0.59619,-10.06969 -4.16949,-8.91152 z"
       style="fill:#ffffff;fill-opacity:1;fill-rule:nonzero;stroke:none;stroke-width:0.352778"
       id="path1338" />
    <path
       d="m 86.202149,108.27432 -1.588911,8.79475 -0.736953,8.60531 1.169811,13.83629 3.446286,8.78629 10.576277,17.37854 c 0.597253,0.0395 4.557181,5.2324 4.557181,5.2324 v 0 c 0,0 4.25521,-4.451 5.6515,-4.67431 v 0 l 2.09056,-2.01295 7.79004,-5.48852 3.98004,-2.11172 3.99486,-1.44498 c 3.48544,-4.77379 5.55237,-10.70998 5.55237,-17.14465 v 0 c 0,-8.29169 -9.06886,-20.96382 -19.89103,-26.59591 v 0 c -5.55801,-2.89243 -11.06381,-3.51473 -16.112415,-3.51508 v 0 c -3.811058,0 -7.361061,0.35454 -10.479616,0.35454"
       style="fill:url(#radialGradient1358);stroke:none;stroke-width:0.352778"
       id="path1360" />
    <path
       d="m 94.307394,121.88389 c -2.761544,-0.65758 -9.863314,0.19932 -11.322403,0.85055 l 1.62807,14.81314 1.013178,4.24991 1.829505,4.76321 6.556022,10.83768 c 0.884414,0.22119 1.798461,0.33902 2.734734,0.33902 7.69585,0 13.93472,-7.83555 13.93472,-17.5013 0,-9.66576 -10.39213,-16.92805 -16.373826,-18.35221"
       style="fill:#1d1d1b;fill-opacity:1;fill-rule:nonzero;stroke:none;stroke-width:0.352778"
       id="path1372" />
    <path
       d="m 110.65127,127.67336 c 0,3.62338 -2.93758,6.56096 -6.56096,6.56096 -3.62338,0 -6.560609,-2.93758 -6.560609,-6.56096 0,-3.62338 2.937229,-6.56096 6.560609,-6.56096 3.62338,0 6.56096,2.93758 6.56096,6.56096"
       style="fill:#ffffff;fill-opacity:1;fill-rule:nonzero;stroke:none;stroke-width:0.352778"
       id="path1376" />
    <path
       d="m 102.29054,155.07565 c 0,1.77941 -1.44251,3.22227 -3.221919,3.22227 -1.779764,0 -3.222273,-1.44286 -3.222273,-3.22227 0,-1.77941 1.442509,-3.22192 3.222273,-3.22192 1.779409,0 3.221919,1.44251 3.221919,3.22192"
       style="fill:#ffffff;fill-opacity:1;fill-rule:nonzero;stroke:none;stroke-width:0.352778"
       id="path1380" />
    <path
       d="m 103.97968,171.26071 c 0,0 -7.069667,-9.03111 -12.594166,-18.04458 -3.14325,-5.12939 -5.785556,-10.25172 -6.339417,-13.70542 -1.721555,-10.72444 -3.312583,-34.38878 8.995833,-42.156943 2.850445,-1.799166 5.834945,-2.744611 8.89353,-2.959805 0,0.0035 0,0.0035 0.004,0 5.57036,-0.391584 11.38061,1.640416 17.04975,5.362222 4.50144,2.963336 8.91822,6.992056 13.04924,11.722806 0.95603,1.09361 2.05317,2.49767 3.18912,4.07811 3.63713,5.06942 7.65139,11.96269 8.61448,16.36889 1.0234,4.69547 -0.66993,18.82069 -0.66993,18.82069"
       style="fill:none;stroke:#1d1d1b;stroke-width:2.41617;stroke-linecap:butt;stroke-linejoin:miter;stroke-miterlimit:10;stroke-dasharray:none;stroke-opacity:1"
       id="path1384" />
    <path
       d="m 154.01397,149.34284 c 0.0275,0.3489 -3.98745,0.90487 -10.36637,2.22991 -3.18488,0.67063 -6.96137,1.53917 -11.05183,2.78518 -4.09328,1.24742 -8.48077,2.87937 -12.66542,5.39221 -4.23228,2.45851 -7.94068,5.32976 -11.0162,8.25535 -3.08151,2.92382 -5.5379,5.88821 -7.43126,8.49983 -1.895122,2.61337 -3.234266,4.87221 -4.138435,6.44772 -0.904523,1.57797 -1.376892,2.47367 -1.538817,2.41864 -0.161219,-0.0529 0.01341,-1.08479 0.668161,-2.8261 0.655108,-1.7392 1.792464,-4.1903 3.560231,-7.01464 1.76495,-2.82151 4.16913,-6.01556 7.28769,-9.15105 3.11114,-3.13619 6.9476,-6.19725 11.36438,-8.76265 0.55139,-0.32138 1.09996,-0.64064 1.64465,-0.95779 0.55915,-0.29633 1.13206,-0.5648 1.69192,-0.8442 0.28116,-0.13793 0.56092,-0.27552 0.83996,-0.41239 0.2787,-0.13759 0.56727,-0.24377 0.84879,-0.36619 0.56621,-0.23601 1.12748,-0.47025 1.68416,-0.70273 0.55562,-0.23424 1.12324,-0.41275 1.6764,-0.61807 0.55633,-0.19367 1.10208,-0.40463 1.65206,-0.57644 0.55068,-0.16968 1.09537,-0.3369 1.63371,-0.5027 0.53799,-0.16757 1.07068,-0.32985 1.60302,-0.46355 4.23792,-1.15853 8.11883,-1.86197 11.38802,-2.32093 6.54474,-0.89923 10.64437,-0.84032 10.66518,-0.50941"
       style="fill:#1d1d1b;fill-opacity:1;fill-rule:nonzero;stroke:none;stroke-width:0.352778"
       id="path1388" />
    <path
       d="m 101.93777,82.190848 c 0,0 -7.347303,3.188053 -9.289697,4.703586 -3.561292,2.778831 -11.0236,16.131826 -11.0236,16.131826 0,0 0.21202,-21.440426 12.434711,-24.010412 5.673372,-1.192742 8.584146,3.175 8.584146,3.175"
       style="fill:#e89b1f;fill-opacity:1;fill-rule:nonzero;stroke:none;stroke-width:0.352778"
       id="path1392" />
    <path
       d="m 100.92095,80.596822 c 0,0 -7.347303,3.188053 -9.289697,4.703586 -3.561292,2.778831 -9.995605,13.640858 -9.995605,13.640858 0,0 -0.815623,-18.949458 11.406716,-21.519444 5.673372,-1.192742 8.584146,3.175 8.584146,3.175"
       style="fill:#1d1d1b;fill-opacity:1;fill-rule:nonzero;stroke:none;stroke-width:0.352778"
       id="path1396" />
    <path
       d="m 181.82345,134.23315 c 0,0 -7.98336,-4.39208 -12.34722,-7.56003 -0.81492,-0.59266 -1.50284,-1.13947 -1.98967,-1.60866 -3.50661,-3.37962 -8.59719,-12.29078 -10.32933,-16.89453 -0.0106,-0.0247 -0.0212,-0.0494 -0.0282,-0.0706 -5.76086,-15.508108 -3.99698,-25.332969 2.46944,-27.386135 7.43303,-2.356556 27.04747,15.871471 27.04747,15.871471"
       style="fill:none;stroke:#1d1d1b;stroke-width:2.41617;stroke-linecap:butt;stroke-linejoin:miter;stroke-miterlimit:10;stroke-dasharray:none;stroke-opacity:1"
       id="path1400" />
    <path
       d="m 171.16966,126.26397 c -0.53975,0.23283 -1.10772,0.36689 -1.69333,0.40922 -0.81492,-0.59266 -1.50284,-1.13947 -1.98967,-1.60866 -3.50661,-3.37962 -11.0677,-18.44746 -12.79984,-23.05121 0.40923,-2.726972 2.54353,-3.62091 4.58294,-4.502855 4.08129,-1.763889 12.00926,7.064725 14.85265,13.644035 2.83986,6.58283 1.13242,13.34558 -2.95275,15.10947"
       style="fill:#1d1d1b;fill-opacity:1;fill-rule:nonzero;stroke:none;stroke-width:0.352778"
       id="path1404" />
    <path
       d="m 171.85903,103.06573 c 0,2.47262 -2.00448,4.4771 -4.4771,4.4771 -2.47297,0 -4.47746,-2.00448 -4.47746,-4.4771 0,-2.47262 2.00449,-4.477103 4.47746,-4.477103 2.47262,0 4.4771,2.004483 4.4771,4.477103"
       style="fill:#ffffff;fill-opacity:1;fill-rule:nonzero;stroke:none;stroke-width:0.352778"
       id="path1408" />
    <path
       d="m 171.29077,121.88389 c 0,1.44251 -1.16946,2.61232 -2.61232,2.61232 -1.44286,0 -2.61232,-1.16981 -2.61232,-2.61232 0,-1.44286 1.16946,-2.61232 2.61232,-2.61232 1.44286,0 2.61232,1.16946 2.61232,2.61232"
       style="fill:#ffffff;fill-opacity:1;fill-rule:nonzero;stroke:none;stroke-width:0.352778"
       id="path1412" />
    <path
       d="m 182.74416,132.80345 c 0,0 6.25934,-4.30248 8.57603,-5.29202 1.6764,-0.71649 7.05555,-1.83691 7.05555,-1.83691 0,0 -5.45041,2.33115 -7.14375,3.34116 -2.09797,1.2513 -7.8493,5.82083 -7.8493,5.82083 l -0.63853,-2.60809"
       style="fill:#1d1d1b;fill-opacity:1;fill-rule:nonzero;stroke:none;stroke-width:0.352778"
       id="path1416" />
    <path
       d="m 138.05081,71.777377 c 0,0 6.42338,-0.705556 8.55486,-0.440972 2.49767,0.309739 12.66825,2.998611 12.66825,2.998611 0,0 -8.48113,-5.547783 -10.90436,-5.997222 -8.55486,-1.5875 -10.31875,3.439583 -10.31875,3.439583"
       style="fill:#e89b1f;fill-opacity:1;fill-rule:nonzero;stroke:none;stroke-width:0.352778"
       id="path1420" />
    <path
       d="m 139.10915,70.542655 c 0,0 6.42338,-1.058333 8.55486,-0.79375 2.49767,0.309739 9.49325,3.351389 9.49325,3.351389 0,0 -5.30613,-5.547783 -7.72936,-5.997222 -8.55486,-1.5875 -10.31875,3.439583 -10.31875,3.439583"
       style="fill:#1d1d1b;fill-opacity:1;fill-rule:nonzero;stroke:none;stroke-width:0.352778"
       id="path1424" />
    <path
       d="m 147.4583,184.92619 c -0.0413,0.0226 -0.29563,-0.34572 -0.56303,-1.01388 -0.13194,-0.33408 -0.26741,-0.74401 -0.34961,-1.21885 -0.0801,-0.47166 -0.11712,-1.02094 0.0169,-1.57833 0.13053,-0.55527 0.39581,-1.03893 0.69144,-1.42169 0.29669,-0.38488 0.62124,-0.67698 0.90946,-0.89535 0.58209,-0.43251 1.01036,-0.58244 1.02941,-0.54046 0.0233,0.0452 -0.35278,0.26952 -0.87101,0.73272 -0.50518,0.46038 -1.17616,1.19768 -1.41605,2.20557 -0.11994,0.49847 -0.0974,0.9973 -0.0392,1.44709 0.0603,0.45085 0.16581,0.85302 0.26423,1.18781 0.20003,0.66957 0.37183,1.07244 0.32738,1.09537"
       style="fill:#1d1d1b;fill-opacity:1;fill-rule:nonzero;stroke:none;stroke-width:0.352778"
       id="path1428" />
    <path
       d="m 147.4583,184.92619 c -0.0413,0.0226 -0.29563,-0.34572 -0.56303,-1.01388 -0.13194,-0.33408 -0.26741,-0.74401 -0.34961,-1.21885 -0.0801,-0.47166 -0.11712,-1.02094 0.0169,-1.57833 0.13053,-0.55527 0.39581,-1.03893 0.69144,-1.42169 0.29669,-0.38488 0.62124,-0.67698 0.90946,-0.89535 0.58209,-0.43251 1.01036,-0.58244 1.02941,-0.54046 0.0233,0.0452 -0.35278,0.26952 -0.87101,0.73272 -0.50518,0.46038 -1.17616,1.19768 -1.41605,2.20557 -0.11994,0.49847 -0.0974,0.9973 -0.0392,1.44709 0.0603,0.45085 0.16581,0.85302 0.26423,1.18781 0.20003,0.66957 0.37183,1.07244 0.32738,1.09537 z"
       style="fill:none;stroke:#1d1d1b;stroke-width:1.05833;stroke-linecap:butt;stroke-linejoin:miter;stroke-miterlimit:10;stroke-dasharray:none;stroke-opacity:1"
       id="path1432" />
    <path
       d="m 163.36258,135.10099 c 0,0 9.22796,-7.24606 13.08523,-7.57414 3.5299,-0.29986 10.66271,3.73345 11.25644,7.90293 1.05833,7.43232 -5.26063,13.3992 -7.92586,15.31726 -6.01592,4.32858 -12.88803,0 -12.88803,0"
       style="fill:#f9b233;fill-opacity:1;fill-rule:nonzero;stroke:#1d1d1b;stroke-width:2.41617;stroke-linecap:butt;stroke-linejoin:miter;stroke-miterlimit:10;stroke-dasharray:none;stroke-opacity:1"
       id="path1436" />
    <path
       d="m 198.9151,178.23996 c -1.16064,7.47889 -3.53131,14.36864 -8.18092,16.94392 -5.06236,2.80105 -11.53936,2.20486 -17.89641,0.18697 -5.98664,-1.89442 -11.86392,-5.04825 -16.35478,-7.8105 -4.85069,-2.98803 -8.08214,-5.52097 -8.08214,-5.52097 0,0 18.87714,-3.35139 30.87158,-8.3432 11.11603,-4.62491 20.2812,-20.51403 20.2812,-20.51403 0,0 0.25753,2.86456 0.34925,7.11553 0.10583,4.89303 -0.0106,11.62403 -0.98778,17.94228"
       style="fill:#1d1d1b;fill-opacity:1;fill-rule:nonzero;stroke:none;stroke-width:0.352778"
       id="path1484" />
    <path
       d="m 198.9151,178.23996 c -1.16064,7.47889 -3.53131,14.36864 -8.18092,16.94392 -5.06236,2.80105 -11.53936,2.20486 -17.89641,0.18697 -5.98664,-1.89442 -11.86392,-5.04825 -16.35478,-7.8105 -4.85069,-2.98803 -8.08214,-5.52097 -8.08214,-5.52097 0,0 18.87714,-3.35139 30.87158,-8.3432 11.11603,-4.62491 20.2812,-20.51403 20.2812,-20.51403 0,0 0.25753,2.86456 0.34925,7.11553 0.10583,4.89303 -0.0106,11.62403 -0.98778,17.94228 z"
       style="fill:none;stroke:#1d1d1b;stroke-width:1.41111;stroke-linecap:butt;stroke-linejoin:miter;stroke-miterlimit:10;stroke-dasharray:none;stroke-opacity:1"
       id="path1488" />
    <path
       d="m 203.78697,157.7375 c -0.16016,0.0603 -0.5334,-0.5013 -1.0601,-1.42593 -0.25964,-0.45861 -0.56903,-1.00471 -0.91263,-1.61113 -0.34502,-0.59302 -0.73237,-1.25448 -1.1871,-1.82104 -0.11042,-0.15205 -0.22966,-0.25294 -0.3369,-0.36795 -0.0529,-0.037 -0.10301,-0.0762 -0.1517,-0.11818 -0.0501,-0.031 -0.0914,-0.0423 -0.1404,-0.0709 -0.24942,-0.0931 -0.6089,-0.133 -0.92851,-0.16545 -0.6604,-0.0565 -1.2887,-0.061 -1.81575,-0.073 -1.05763,-0.0183 -1.73073,-0.06 -1.75719,-0.23036 -0.0265,-0.16616 0.60749,-0.4318 1.68275,-0.63959 0.53905,-0.10019 1.18569,-0.1905 1.93993,-0.19402 0.38382,0.0102 0.77611,0.01 1.26259,0.15557 0.12594,0.0487 0.27023,0.10407 0.387,0.17286 0.10865,0.0744 0.21731,0.1524 0.3242,0.23354 0.17321,0.1651 0.35666,0.33549 0.4886,0.51365 0.5662,0.71049 0.93062,1.4231 1.24248,2.08103 0.30515,0.65899 0.53411,1.26612 0.70203,1.78365 0.33161,1.03716 0.41945,1.71767 0.2607,1.77729"
       style="fill:#1d1d1b;fill-opacity:1;fill-rule:nonzero;stroke:none;stroke-width:0.352778"
       id="path1492" />
    <path
       d="m 203.78697,157.7375 c -0.16016,0.0603 -0.5334,-0.5013 -1.0601,-1.42593 -0.25964,-0.45861 -0.56903,-1.00471 -0.91263,-1.61113 -0.34502,-0.59302 -0.73237,-1.25448 -1.1871,-1.82104 -0.11042,-0.15205 -0.22966,-0.25294 -0.3369,-0.36795 -0.0529,-0.037 -0.10301,-0.0762 -0.1517,-0.11818 -0.0501,-0.031 -0.0914,-0.0423 -0.1404,-0.0709 -0.24942,-0.0931 -0.6089,-0.133 -0.92851,-0.16545 -0.6604,-0.0565 -1.2887,-0.061 -1.81575,-0.073 -1.05763,-0.0183 -1.73073,-0.06 -1.75719,-0.23036 -0.0265,-0.16616 0.60749,-0.4318 1.68275,-0.63959 0.53905,-0.10019 1.18569,-0.1905 1.93993,-0.19402 0.38382,0.0102 0.77611,0.01 1.26259,0.15557 0.12594,0.0487 0.27023,0.10407 0.387,0.17286 0.10865,0.0744 0.21731,0.1524 0.3242,0.23354 0.17321,0.1651 0.35666,0.33549 0.4886,0.51365 0.5662,0.71049 0.93062,1.4231 1.24248,2.08103 0.30515,0.65899 0.53411,1.26612 0.70203,1.78365 0.33161,1.03716 0.41945,1.71767 0.2607,1.77729 z"
       style="fill:none;stroke:#1d1d1b;stroke-width:1.05833;stroke-linecap:butt;stroke-linejoin:miter;stroke-miterlimit:10;stroke-dasharray:none;stroke-opacity:1"
       id="path1496" />
    <path
       d="m 198.9151,178.23996 c -1.16064,7.47889 -3.53131,14.36864 -8.18092,16.94392 -5.06236,2.80105 -11.53936,2.20486 -17.89641,0.18697 2.65994,-5.24933 6.7698,-12.56242 9.906,-14.51681 2.93864,-1.83091 10.1988,-2.43769 16.17133,-2.61408"
       style="fill:#e30613;fill-opacity:1;fill-rule:nonzero;stroke:none;stroke-width:0.352778"
       id="path1500" />
    <path
       d="m 198.9151,178.23996 c -1.16064,7.47889 -3.53131,14.36864 -8.18092,16.94392 -5.06236,2.80105 -11.53936,2.20486 -17.89641,0.18697 2.65994,-5.24933 6.7698,-12.56242 9.906,-14.51681 2.93864,-1.83091 10.1988,-2.43769 16.17133,-2.61408 z"
       style="fill:none;stroke:#1d1d1b;stroke-width:1.41111;stroke-linecap:butt;stroke-linejoin:miter;stroke-miterlimit:10;stroke-dasharray:none;stroke-opacity:1"
       id="path1504" />
    <path
       d="m 199.90281,160.29754 c -3.03389,4.22628 -10.18822,13.89944 -14.02644,16.56997 -5.47159,3.80295 -21.47006,8.509 -29.39345,10.6927 -4.85069,-2.98803 -8.08214,-5.52098 -8.08214,-5.52098 0,0 18.87714,-3.35138 30.87159,-8.34319 11.11602,-4.62492 20.28119,-20.51403 20.28119,-20.51403 0,0 0.25753,2.86456 0.34925,7.11553"
       style="fill:#ffffff;fill-opacity:1;fill-rule:nonzero;stroke:none;stroke-width:0.352778"
       id="path1508" />
    <path
       d="m 199.90281,160.29754 c -3.03389,4.22628 -10.18822,13.89944 -14.02644,16.56997 -5.47159,3.80295 -21.47006,8.509 -29.39345,10.6927 -4.85069,-2.98803 -8.08214,-5.52098 -8.08214,-5.52098 0,0 18.87714,-3.35138 30.87159,-8.34319 11.11602,-4.62492 20.28119,-20.51403 20.28119,-20.51403 0,0 0.25753,2.86456 0.34925,7.11553 z"
       style="fill:none;stroke:#1d1d1b;stroke-width:1.41111;stroke-linecap:butt;stroke-linejoin:miter;stroke-miterlimit:10;stroke-dasharray:none;stroke-opacity:1"
       id="path1512" />
  </g>
</svg>
